<svg width="44" height="43" viewBox="0 0 44 43" fill="none" xmlns="http://www.w3.org/2000/svg">
<path d="M21.5701 3.12433e-06H21.5497C18.7219 -0.0015241 15.9217 0.556863 13.3108 1.64295C10.6999 2.72904 8.32985 4.32134 6.3374 6.328C9.6841 3.03462 16.619 2.81192 20.2621 6.29507C20.7739 6.78137 21.2133 7.33855 21.5669 7.9496L34.2088 29.8474H34.2951L34.2151 29.9666C32.548 32.4586 28.8312 32.319 27.3319 29.7188C25.1912 26.013 23.1383 22.4562 21.5669 19.7336L13.1751 34.2621L10.0511 39.6727C13.2108 41.6712 16.8373 42.8106 20.5722 42.9784C24.3071 43.1461 28.0212 42.3363 31.3473 40.6291C34.6734 38.9218 37.4965 36.3762 39.5375 33.2438C41.5785 30.1113 42.7667 26.5006 42.9849 22.7682C43.0288 22.3908 43.0529 22.0112 43.057 21.6312C43.057 21.5842 43.057 21.5371 43.057 21.4901C43.0577 18.6681 42.5023 15.8736 41.4228 13.2662C40.3432 10.6588 38.7605 8.28966 36.7652 6.29404C34.7699 4.29842 32.401 2.71542 29.7937 1.63548C27.1865 0.555537 24.3921 -0.000202931 21.5701 3.12433e-06Z" fill="url(#paint0_linear_777_12941)"/>
<path d="M10.1405 26.7156C10.1154 26.7579 10.0903 26.8003 10.0668 26.8426L10.1953 26.6262L20.1382 9.40494C17.6964 5.18157 11.1363 4.37391 7.21562 6.891C6.75648 7.18822 6.32268 7.52288 5.91866 7.89156C4.48212 9.19166 3.35139 10.8979 2.45747 12.565C0.0925116 16.9782 -1.94782 25.2555 3.25729 28.5614C4.7597 29.5181 6.5742 29.8396 8.3291 29.8396L8.34949 29.8067L8.33851 29.8239L10.1405 26.7156Z" fill="url(#paint1_linear_777_12941)"/>
<defs>
<linearGradient id="paint0_linear_777_12941" x1="34.5617" y1="-3.03148" x2="12.7893" y2="39.9754" gradientUnits="userSpaceOnUse">
<stop stop-color="#2F12A7"/>
<stop offset="1" stop-color="#C81EF2"/>
</linearGradient>
<linearGradient id="paint1_linear_777_12941" x1="-0.150572" y1="31.0487" x2="18.3974" y2="-1.47576" gradientUnits="userSpaceOnUse">
<stop stop-color="#2F12A7"/>
<stop offset="1" stop-color="#C81EF2"/>
</linearGradient>
</defs>
</svg>
