<svg width="185" height="76" viewBox="0 0 185 76" fill="none" xmlns="http://www.w3.org/2000/svg">
<g clip-path="url(#clip0_440_5686)">
<path d="M84.4577 0.942871C82.055 0.942739 79.7105 1.68202 77.7425 3.06034C75.7745 4.43866 74.2783 6.38924 73.4571 8.64723L56.7793 54.4934H62.3353C63.8958 54.4939 65.4174 54.006 66.6867 53.0981C67.956 52.1902 68.9093 50.9078 69.413 49.4308L70.9209 45.0166H89.948L91.4041 49.381C91.9003 50.8699 92.8524 52.1649 94.1256 53.0825C95.3987 54.0001 96.9284 54.4937 98.4978 54.4934H104.014L84.4577 0.942871ZM73.853 36.2162L80.6165 16.7375L87.1591 36.2162H73.853Z" fill="url(#paint0_linear_440_5686)"/>
<path d="M138.111 27.0418C141.422 25.4623 144.73 21.4003 144.73 15.9856C144.73 6.73357 138.487 0.942871 128.183 0.942871H119.472C117.791 0.94261 116.127 1.27348 114.574 1.91659C113.021 2.5597 111.61 3.50244 110.421 4.69098C109.233 5.87951 108.29 7.29054 107.647 8.84348C107.004 10.3964 106.673 12.0609 106.673 13.7417V54.4934H129.086C138.939 54.4934 145.484 48.7783 145.484 39.0748C145.484 33.3596 143.001 29.3732 138.111 27.0418ZM117.127 10.2685H127.356C131.794 10.2685 134.276 12.751 134.276 16.4351C134.276 18.315 133.679 19.7432 132.472 20.8712C131.264 21.9991 129.538 22.6018 127.356 22.6018H117.127V10.2685ZM133.224 43.29C132.02 44.5671 130.29 45.1698 128.034 45.1698H117.127V32.005H128.034C132.545 32.005 135.028 34.7123 135.028 38.5496C135.028 40.4341 134.427 42.0135 133.224 43.288V43.29Z" fill="url(#paint1_linear_440_5686)"/>
<path d="M170.479 23.2742L164.266 22.387C163.605 22.2951 162.953 22.148 162.317 21.9473C161.21 21.6209 160.196 21.0382 159.357 20.2465C159.117 19.9193 158.904 19.5726 158.722 19.2101C158.167 18.1268 157.959 16.8989 158.125 15.6931C158.147 15.53 158.175 15.3689 158.211 15.2078L158.247 15.0486C158.296 14.8497 158.354 14.6508 158.422 14.4519C158.422 14.428 158.44 14.4021 158.448 14.3763C158.475 14.2947 158.505 14.2151 158.537 14.1336L158.567 14.058C158.599 13.9804 158.633 13.9028 158.666 13.8272C158.7 13.7516 158.732 13.678 158.768 13.6044C158.804 13.5308 158.849 13.4393 158.893 13.3578C158.901 13.3406 158.909 13.324 158.919 13.308C158.965 13.2205 159.013 13.135 159.06 13.0494C159.108 12.9639 159.192 12.8306 159.259 12.7212C159.327 12.6118 159.377 12.5382 159.438 12.4487C159.5 12.3592 159.578 12.2498 159.649 12.1523L159.721 12.0548L159.965 11.7425C160.98 10.8831 162.353 10.2844 164.031 10.0278C164.671 9.93216 165.318 9.88495 165.965 9.88653C168.933 9.88653 171.479 10.3659 173.588 11.3446C174.656 11.8445 175.851 12.0051 177.013 11.8049C178.175 11.6046 179.248 11.0532 180.087 10.2247L183.269 7.07572L183.254 7.0618C179.032 3.0097 173.351 0.942871 166.259 0.942871C155.016 0.942871 147.915 7.37809 147.915 16.9185C147.915 22.3014 149.798 26.1327 153.307 28.5874C155.535 30.145 158.418 31.1496 161.895 31.6389L168.261 32.5261C172.476 33.1925 174.547 34.967 174.547 38.8122C174.547 43.1766 171.439 45.323 165.227 45.323C162.145 45.323 159.47 44.8661 157.202 43.9524C155.54 43.2979 153.722 43.1453 151.974 43.5134C150.225 43.8814 148.623 44.754 147.366 46.0232L145.844 47.543C150.875 52.5718 156.717 54.4954 165.076 54.4954C176.393 54.4954 184.602 48.5038 184.602 38.5198C184.602 28.7545 179.351 24.5373 170.479 23.2742Z" fill="url(#paint2_linear_440_5686)"/>
<path d="M27.7561 0.0437051H27.7303C24.1434 0.041768 20.5916 0.750042 17.2799 2.12767C13.9681 3.5053 10.9618 5.52502 8.43457 8.07032C12.6796 3.8929 21.4761 3.61043 26.0971 8.02854C26.7463 8.64539 27.3036 9.35213 27.7521 10.1272L43.7875 37.9031H43.8969L43.7954 38.0542C41.6809 41.2152 36.9663 41.0381 35.0646 37.7399C32.3493 33.0393 29.7454 28.5277 27.7521 25.0744L17.1077 43.5028L13.1451 50.3657C17.153 52.9007 21.7529 54.3459 26.4904 54.5587C31.2279 54.7715 35.9389 53.7443 40.1578 51.5788C44.3768 49.4133 47.9576 46.1843 50.5465 42.2111C53.1353 38.2378 54.6426 33.6578 54.9193 28.9236C54.9751 28.4448 55.0056 27.9634 55.0108 27.4814C55.0108 27.4217 55.0108 27.362 55.0108 27.3024C55.0116 23.7228 54.3072 20.1782 52.9378 16.8709C51.5685 13.5637 49.561 10.5585 47.0301 8.02724C44.4991 5.49593 41.4943 3.48802 38.1873 2.11819C34.8802 0.74836 31.3357 0.0434438 27.7561 0.0437051Z" fill="url(#paint3_linear_440_5686)"/>
<path d="M13.2584 33.9306C13.2266 33.9843 13.1948 34.038 13.165 34.0918L13.3281 33.8172L25.9399 11.9733C22.8426 6.61628 14.5216 5.59181 9.5485 8.78456C8.96611 9.16156 8.41586 9.58605 7.90339 10.0537C6.08124 11.7028 4.647 13.8671 3.51313 15.9817C0.51334 21.5794 -2.07467 32.0786 4.52764 36.272C6.43334 37.4854 8.7349 37.8932 10.9609 37.8932L10.9867 37.8514L10.9728 37.8733L13.2584 33.9306Z" fill="url(#paint4_linear_440_5686)"/>
<path d="M3.38168 73.2242V65.864H0.513184V64.8276H7.49544V65.864H4.62297V73.2242H3.38168Z" fill="#2F12A7"/>
<path d="M8.35498 73.2242V64.8236H11.9038C12.8003 64.8236 13.4952 65.0358 13.9885 65.4602C14.4819 65.8845 14.7259 66.4767 14.7206 67.2366C14.7333 67.6886 14.6174 68.1349 14.3864 68.5236C14.1603 68.8826 13.8329 69.1664 13.4455 69.3392C12.9975 69.5358 12.5123 69.6328 12.0232 69.6237L12.2221 69.4247H12.5324C12.843 69.4209 13.148 69.508 13.4097 69.6754C13.6934 69.8744 13.9143 70.1505 14.0462 70.4711L15.2398 73.2123H13.893L12.6995 70.4591C12.6599 70.3196 12.5898 70.1905 12.4941 70.0815C12.3985 69.9724 12.2797 69.886 12.1465 69.8286C11.8493 69.7255 11.5359 69.677 11.2215 69.6853H9.5903V73.2242H8.35498ZM9.59428 68.7544H11.7029C12.2997 68.7544 12.7492 68.629 13.0556 68.3744C13.211 68.2391 13.3333 68.0699 13.413 67.8799C13.4927 67.6898 13.5276 67.484 13.5151 67.2783C13.5296 67.0724 13.4956 66.866 13.4158 66.6756C13.336 66.4852 13.2126 66.3163 13.0556 66.1823C12.7492 65.9356 12.2997 65.8123 11.7029 65.8123H9.59229L9.59428 68.7544Z" fill="#2F12A7"/>
<path d="M16.0133 69.0268C15.9938 68.2389 16.153 67.4568 16.4788 66.7392C16.7692 66.1176 17.2407 65.5982 17.8315 65.2493C18.4762 64.8872 19.2069 64.7064 19.9461 64.7261C20.6793 64.7063 21.4041 64.8864 22.0427 65.2473C22.6332 65.6002 23.1075 66.1181 23.4073 66.7372C23.7441 67.4476 23.9097 68.227 23.8907 69.0129C23.9104 69.8047 23.7449 70.5901 23.4073 71.3065C23.1074 71.9306 22.6308 72.4528 22.0368 72.8084C21.4018 73.1738 20.6785 73.3576 19.9461 73.3395C19.2075 73.3594 18.4778 73.175 17.8375 72.8064C17.2476 72.451 16.7767 71.9283 16.4848 71.3045C16.1567 70.5909 15.9955 69.812 16.0133 69.0268ZM17.3063 69.0268C17.3063 70.044 17.5291 70.8397 17.9747 71.4139C18.4203 71.9882 19.0754 72.2746 19.9401 72.2733C20.7822 72.2733 21.4333 71.9888 21.8935 71.4199C22.3537 70.851 22.5845 70.0553 22.5858 69.0328C22.5858 68.009 22.3577 67.2133 21.9015 66.6457C21.4453 66.0781 20.7915 65.7963 19.9401 65.8003C19.0754 65.8003 18.4203 66.0821 17.9747 66.6457C17.5291 67.2093 17.3063 68.003 17.3063 69.0268ZM19.3155 75.5476V74.354H20.5786V75.5476H19.3155Z" fill="#2F12A7"/>
<path d="M25.2852 73.2242V64.8236H26.238L31.3981 71.587H31.0997V64.8236H32.2555V73.2242H31.3146L26.1664 66.4608H26.4409V73.2242H25.2852Z" fill="#2F12A7"/>
<path d="M39.4885 73.2242L35.7944 64.8236H37.1292L40.2742 72.1838H39.8445L43.0035 64.8236H44.2786L40.5806 73.2242H39.4885Z" fill="#2F12A7"/>
<path d="M44.9448 73.2242V64.8236H50.4491V65.8182H46.1503V68.4639H50.1785V69.4586H46.1503V72.2236H50.4511V73.2182L44.9448 73.2242ZM47.2563 75.5476V74.3541H48.5195V75.5476H47.2563Z" fill="#2F12A7"/>
<path d="M51.6885 73.2242V64.8236H52.6413L57.8014 71.587H57.503V64.8236H58.6588V73.2242H57.7179L52.5717 66.4608H52.8442V73.2242H51.6885Z" fill="#2F12A7"/>
<path d="M65.2255 73.2242V65.864H62.353V64.8276H69.3353V65.864H66.4648V73.2242H65.2255Z" fill="#2F12A7"/>
<path d="M70.1943 73.2242V64.8236H73.7451C74.6416 64.8236 75.3365 65.0358 75.8299 65.4602C76.3232 65.8845 76.5692 66.4813 76.5679 67.2505C76.5802 67.7022 76.465 68.1482 76.2357 68.5375C76.0094 68.897 75.6811 69.181 75.2928 69.3531C74.8427 69.5492 74.3553 69.6449 73.8645 69.6336L74.0535 69.4347H74.3757C74.6859 69.4299 74.9904 69.5171 75.251 69.6853C75.5359 69.8837 75.7576 70.1599 75.8896 70.481L77.093 73.2222H75.7344L74.5408 70.4691C74.5009 70.3294 74.4304 70.2003 74.3344 70.0912C74.2384 69.9821 74.1194 69.8958 73.9858 69.8385C73.6894 69.7351 73.3766 69.6866 73.0628 69.6953H71.4316V73.2242H70.1943ZM71.4336 68.7544H73.5422C74.139 68.7544 74.5886 68.629 74.8949 68.3744C75.0497 68.2387 75.1713 68.0693 75.2506 67.8794C75.3299 67.6894 75.3648 67.4838 75.3525 67.2783C75.3669 67.0726 75.3331 66.8664 75.2536 66.6761C75.1742 66.4858 75.0513 66.3167 74.8949 66.1823C74.5886 65.9356 74.1377 65.8123 73.5422 65.8123H71.4336V68.7544Z" fill="#2F12A7"/>
<path d="M77.1826 73.2242L80.9244 64.8236H81.9847L85.7861 73.2242H84.511L83.4726 70.8371L83.9978 71.1693H78.9152L79.4762 70.8371L78.4398 73.2242H77.1826ZM81.4356 66.1823L79.6254 70.4592L79.339 70.1847H83.5681L83.3314 70.4592L81.4834 66.1823H81.4356ZM81.0656 64.1075V63.9086C81.0595 63.7792 81.0974 63.6516 81.173 63.5465C81.2454 63.4543 81.3297 63.372 81.4237 63.3019C81.5192 63.2303 81.6027 63.1639 81.6743 63.1029C81.7078 63.0754 81.7348 63.0408 81.7534 63.0016C81.772 62.9624 81.7817 62.9195 81.7818 62.8762C81.7814 62.8367 81.7693 62.7982 81.747 62.7656C81.7247 62.733 81.6931 62.7078 81.6564 62.6932C81.5338 62.6421 81.4011 62.6196 81.2685 62.6275C81.1469 62.6269 81.0256 62.6389 80.9065 62.6633C80.778 62.6916 80.6522 62.7308 80.5305 62.7807L80.3316 62.2217C80.705 62.0489 81.114 61.9671 81.5251 61.983C81.8316 61.9674 82.1364 62.0362 82.4064 62.1819C82.4865 62.2274 82.556 62.2894 82.6102 62.3638C82.6645 62.4382 82.7023 62.5233 82.7211 62.6134C82.7399 62.7035 82.7394 62.7967 82.7194 62.8866C82.6994 62.9765 82.6605 63.0611 82.6053 63.1348C82.5149 63.2367 82.4104 63.3251 82.295 63.3973C82.1849 63.467 82.0817 63.5469 81.9866 63.6361C81.9415 63.682 81.9066 63.7369 81.884 63.7972C81.8613 63.8575 81.8516 63.9219 81.8554 63.9862V64.1175L81.0656 64.1075Z" fill="#2F12A7"/>
<path d="M86.6021 73.2242V64.8236H87.8413V73.2242H86.6021Z" fill="#2F12A7"/>
<path d="M92.4043 73.2242V64.8236H93.3571L98.5173 71.587H98.2189V64.8236H99.3746V73.2242H98.4337L93.2855 66.4608H93.56V73.2242H92.4043Z" fill="#2F12A7"/>
<path d="M104.998 73.3316C104.186 73.3567 103.381 73.176 102.657 72.8065C102.038 72.4741 101.54 71.9547 101.235 71.3225C100.9 70.6032 100.736 69.8161 100.757 69.0229C100.737 68.2268 100.91 67.4375 101.262 66.7234C101.589 66.0936 102.095 65.5751 102.717 65.2334C103.42 64.8679 104.206 64.6879 104.998 64.7102C105.54 64.6996 106.079 64.7865 106.59 64.9668C107.039 65.1349 107.451 65.3874 107.805 65.7108L107.363 66.6756C107.136 66.4793 106.889 66.3079 106.625 66.1644C106.393 66.0394 106.144 65.9451 105.887 65.8839C105.593 65.8201 105.293 65.7901 104.992 65.7944C104.031 65.7944 103.301 66.0762 102.804 66.6398C102.307 67.2034 102.057 67.9991 102.054 69.0269C102.054 70.0746 102.294 70.8703 102.774 71.414C103.254 71.9577 104.011 72.2322 105.044 72.2375C105.4 72.2378 105.755 72.2038 106.104 72.1361C106.452 72.0692 106.792 71.9672 107.119 71.8317L106.88 72.4146V69.6853H104.809V68.7544H107.918V72.7229C107.492 72.9264 107.042 73.0748 106.578 73.1645C106.058 73.275 105.529 73.331 104.998 73.3316Z" fill="#2F12A7"/>
<path d="M109.504 73.2242V64.8236H110.743V68.446H115.462V64.8236H116.701V73.2242H115.462V69.4824H110.743V73.2242H109.504Z" fill="#2F12A7"/>
<path d="M118.38 73.2242V64.8236H119.619V73.2242H118.38Z" fill="#2F12A7"/>
<path d="M121.3 73.2242V64.8236H126.805V65.8182H122.504V68.4639H126.53V69.4586H122.504V72.2236H126.805V73.2182L121.3 73.2242ZM122.241 64.1075L123.707 62.0466H124.779L126.244 64.1075H125.386L124.242 62.7727L123.099 64.1075H122.241ZM123.612 75.5477V74.3541H124.875V75.5477H123.612Z" fill="#2F12A7"/>
<path d="M128.056 73.2242V64.8236H129.14L132.38 72.1281H132.022L135.269 64.8236H136.341V73.2242H135.221V66.5025H135.619L132.583 73.2242H131.809L128.782 66.5025H129.18V73.2242H128.056Z" fill="#2F12A7"/>
<path d="M139.912 69.4248V68.5077H144.499V69.4248H139.912ZM140.924 73.2262V64.8236H143.832C144.659 64.7992 145.48 64.966 146.231 65.311C146.866 65.6169 147.387 66.1154 147.721 66.7353C148.056 67.4485 148.229 68.2264 148.229 69.014C148.229 69.8015 148.056 70.5795 147.721 71.2927C147.389 71.9167 146.867 72.4195 146.231 72.7289C145.482 73.0797 144.66 73.2493 143.832 73.2242L140.924 73.2262ZM142.163 72.1898H143.755C144.834 72.1898 145.639 71.9246 146.168 71.3941C146.697 70.8636 146.962 70.0679 146.963 69.007C146.963 67.9461 146.698 67.1537 146.168 66.6299C145.637 66.106 144.833 65.8461 143.755 65.8501H142.163V72.1898Z" fill="#2F12A7"/>
<path d="M148.575 73.2242L152.316 64.8237H153.371L157.17 73.2242H155.897L154.859 70.8372L155.384 71.1694H150.301L150.862 70.8372L149.826 73.2242H148.575ZM152.828 66.1823L151.017 70.4592L150.731 70.1847H154.962L154.725 70.4592L152.877 66.1823H152.828ZM150.994 64.1075L152.303 62.166H153.401L154.712 64.1075H153.916L152.852 62.8603L151.779 64.1075H150.994ZM154.521 62.8603L153.172 61.0699H154.244L155.257 62.8603H154.521Z" fill="#2F12A7"/>
<path d="M161.328 73.3316C160.16 73.3316 159.292 73.0372 158.724 72.4484C158.156 71.8596 157.873 70.9903 157.873 69.8405V64.8236H159.112V69.8226C159.112 70.6329 159.288 71.2422 159.641 71.6507C159.994 72.0592 160.556 72.2641 161.328 72.2654C162.059 72.2654 162.611 72.0605 162.985 71.6507C163.359 71.2409 163.545 70.6315 163.544 69.8226V64.8296H164.759V69.8465C164.759 70.9989 164.47 71.8682 163.89 72.4544C163.31 73.0405 162.456 73.3329 161.328 73.3316Z" fill="#2F12A7"/>
<path d="M171.284 73.2242V65.864H168.414V64.8276H175.396V65.864H172.525V73.2242H171.284Z" fill="#2F12A7"/>
<path d="M179.661 73.3316C178.494 73.3316 177.627 73.0372 177.059 72.4484C176.491 71.8596 176.207 70.9903 176.206 69.8405V64.8236H177.441V69.8226C177.441 70.6329 177.618 71.2422 177.972 71.6507C178.326 72.0592 178.888 72.264 179.657 72.2654C180.389 72.2654 180.94 72.0665 181.314 71.6507C181.688 71.2349 181.875 70.6322 181.875 69.8226V64.8296H183.09V69.8465C183.09 70.9989 182.8 71.8682 182.219 72.4544C181.638 73.0405 180.785 73.3329 179.661 73.3316ZM182.939 65.49L182.283 65.0742V64.8236C182.538 64.828 182.792 64.7813 183.029 64.6863C183.116 64.6452 183.195 64.587 183.26 64.5154C183.326 64.4437 183.376 64.3598 183.409 64.2686C183.492 64.0256 183.53 63.7695 183.522 63.5127V63.2979H184.582V63.6798C184.588 63.9967 184.52 64.3107 184.383 64.5968C184.257 64.8543 184.06 65.0708 183.816 65.2215C183.551 65.3822 183.249 65.4745 182.939 65.49Z" fill="#2F12A7"/>
</g>
<defs>
<linearGradient id="paint0_linear_440_5686" x1="80.3976" y1="-16.654" x2="80.3976" y2="67.4931" gradientUnits="userSpaceOnUse">
<stop stop-color="#2F12A7"/>
<stop offset="1" stop-color="#7115C5"/>
</linearGradient>
<linearGradient id="paint1_linear_440_5686" x1="126.078" y1="-16.654" x2="126.078" y2="67.4931" gradientUnits="userSpaceOnUse">
<stop stop-color="#2F12A7"/>
<stop offset="1" stop-color="#7115C5"/>
</linearGradient>
<linearGradient id="paint2_linear_440_5686" x1="165.223" y1="-16.654" x2="165.223" y2="67.4931" gradientUnits="userSpaceOnUse">
<stop stop-color="#2F12A7"/>
<stop offset="1" stop-color="#7115C5"/>
</linearGradient>
<linearGradient id="paint3_linear_440_5686" x1="44.2351" y1="-3.80151" x2="16.6183" y2="50.7496" gradientUnits="userSpaceOnUse">
<stop stop-color="#2F12A7"/>
<stop offset="1" stop-color="#C81EF2"/>
</linearGradient>
<linearGradient id="paint4_linear_440_5686" x1="0.205006" y1="39.4269" x2="23.7318" y2="-1.82808" gradientUnits="userSpaceOnUse">
<stop stop-color="#2F12A7"/>
<stop offset="1" stop-color="#C81EF2"/>
</linearGradient>
<clipPath id="clip0_440_5686">
<rect width="185" height="75.5914" fill="white"/>
</clipPath>
</defs>
</svg>
